<?xml version="1.0" encoding="UTF-8" standalone="no"?>
<!DOCTYPE svg PUBLIC "-//W3C//DTD SVG 1.1//EN" "http://www.w3.org/Graphics/SVG/1.1/DTD/svg11.dtd">
<svg width="100%" height="100%" viewBox="0 0 24 24" version="1.1" xmlns="http://www.w3.org/2000/svg" xmlns:xlink="http://www.w3.org/1999/xlink" xml:space="preserve" xmlns:serif="http://www.serif.com/" style="fill-rule:evenodd;clip-rule:evenodd;stroke-linejoin:round;stroke-miterlimit:2;">
    <path d="M20.998,3L20.998,5C20.998,14.627 15.626,19 8.998,19L7.096,19C7.308,15.988 8.245,14.165 10.694,11.999C11.898,10.934 11.796,10.319 11.203,10.672C7.119,13.102 5.091,16.386 5.001,21.63L4.998,22L2.998,22C2.998,20.637 3.114,19.4 3.344,18.268C3.113,16.974 2.998,15.218 2.998,13C2.998,7.477 7.475,3 12.998,3C14.998,3 16.998,4 20.998,3Z" style="fill:rgb(26,138,92);fill-rule:nonzero;"/>
    <g transform="matrix(0,0.5,-0.5,0,19.5,3.5)">
        <path d="M7.105,15.21C8.215,15.65 9,16.733 9,18C9,19.657 7.657,21 6,21C4.343,21 3,19.657 3,18C3,16.694 3.835,15.582 5,15.171L5,8.829C3.835,8.417 3,7.306 3,6C3,4.343 4.343,3 6,3C7.657,3 9,4.343 9,6C9,7.306 8.165,8.417 7,8.829L7,12C7.836,11.372 8.874,11 10,11L14,11C15.383,11 16.548,10.063 16.895,8.79C15.785,8.35 15,7.267 15,6C15,4.343 16.343,3 18,3C19.657,3 21,4.343 21,6C21,7.333 20.13,8.463 18.927,8.854C18.522,11.209 16.47,13 14,13L10,13C8.617,13 7.452,13.937 7.105,15.21ZM6,17C5.448,17 5,17.448 5,18C5,18.552 5.448,19 6,19C6.552,19 7,18.552 7,18C7,17.448 6.552,17 6,17ZM6,5C5.448,5 5,5.448 5,6C5,6.552 5.448,7 6,7C6.552,7 7,6.552 7,6C7,5.448 6.552,5 6,5ZM18,5C17.448,5 17,5.448 17,6C17,6.552 17.448,7 18,7C18.552,7 19,6.552 19,6C19,5.448 18.552,5 18,5Z" style="fill:white;fill-rule:nonzero;"/>
    </g>
</svg>
