<svg xmlns="http://www.w3.org/2000/svg" width="1200" height="630" viewBox="0 0 1200 630">
  <defs>
    <linearGradient id="bg" x1="0" y1="0" x2="1" y2="1">
      <stop offset="0%" stop-color="#121221" />
      <stop offset="100%" stop-color="#1e1e2e" />
    </linearGradient>
    <linearGradient id="accent" x1="0" y1="0" x2="1" y2="1">
      <stop offset="0%" stop-color="#19ac5c" />
      <stop offset="100%" stop-color="#92ce36" />
    </linearGradient>
    <linearGradient id="logoLeaf1" x1="0" y1="0" x2="1" y2="0" gradientUnits="userSpaceOnUse" gradientTransform="matrix(-203.82,603.118,-603.118,-203.82,1427.32,794.322)">
      <stop offset="0" stop-color="rgb(114,203,75)" />
      <stop offset="1" stop-color="rgb(25,172,92)" />
    </linearGradient>
    <linearGradient id="logoLeaf2" x1="0" y1="0" x2="1" y2="0" gradientUnits="userSpaceOnUse" gradientTransform="matrix(-215.719,687.083,-687.083,-215.719,1101.79,671.307)">
      <stop offset="0" stop-color="rgb(121,204,72)" />
      <stop offset="1" stop-color="rgb(10,170,98)" />
    </linearGradient>
  </defs>
  <rect width="1200" height="630" fill="url(#bg)" />
  <g transform="translate(80 135) scale(0.176)">
    <g transform="matrix(1.155129,0,0,1.155129,-113.010205,-188.250863)">
      <path d="M641.269,315.414C649.471,314.594 663.416,314.935 672.074,314.918L724.997,314.847L724.939,488.129C688.502,489.078 651.251,482.369 619.648,504.667C571.974,538.305 578.276,588.032 578.299,639.584L578.334,761.999C578.323,794.492 579.518,830.266 573.988,862.117C563.926,920.158 535.322,973.373 492.463,1013.78C475.257,1029.8 459.118,1041.06 439.971,1054.59C453.12,1063.63 465.264,1071.93 477.528,1082.13C531.413,1126.95 567.005,1187.95 575.67,1258C579.174,1286.33 578.37,1315.66 578.371,1344.34L578.327,1480.52C578.374,1520.3 575.343,1551.22 606.027,1582.77C638.31,1615.97 681.756,1610.64 724.907,1610.79L724.891,1785.9C681.163,1786.41 638.481,1788.36 595.742,1778.5C543.457,1765.44 496.335,1739.31 459.804,1699.38C426.571,1663.45 403.865,1619.08 394.174,1571.11C387.377,1537.92 388.945,1499.7 388.942,1465.56L388.951,1348.52C388.935,1323.76 390.644,1296.08 385.129,1272.06C365.461,1186.4 301.666,1143.8 217.236,1142.86L217.211,967.036C300.002,968.326 367.992,919.637 385.345,837.159C390.671,811.844 388.932,783.453 388.912,757.527L388.909,638.227C388.916,602.721 387.366,567.389 393.838,532.392C402.17,486.475 422.821,443.685 453.585,408.594C501.325,353.887 568.831,320.372 641.269,315.414Z" fill="rgb(3,104,55)" fill-rule="nonzero" />
      <path d="M943.134,1307.1C989.351,1161.86 1067.36,1068.24 1192.77,983.44C1237.78,953.008 1280.87,926.634 1324.71,894.219C1357.97,869.813 1389.58,843.249 1419.35,814.699C1432.18,802.448 1445.09,787.391 1457.79,775.852C1456.03,783.159 1444.56,793.24 1438.83,798.868C1442.61,800.532 1444.78,801.442 1448.72,802.475C1456.42,804.493 1463.82,810.224 1471.16,813.146C1501.89,825.369 1529.86,842.085 1562.3,849.963C1566.65,851.019 1571.25,852.692 1575.51,853.634C1586.29,856.016 1594.84,856.213 1604.16,862.933C1606.92,864.928 1608.86,860.561 1611.92,862.623C1632.2,869.82 1651.62,880.765 1672.95,884.312C1678.31,885.204 1685.73,888.416 1690.72,890.606C1694.26,892.528 1695.7,898.781 1699.86,901.338C1705.67,897.019 1702.78,881.637 1710.24,876.652C1703.38,905.243 1675.93,983.134 1662.44,1009.32C1661.05,1012.69 1659.52,1016 1657.87,1019.25C1640.69,1055.19 1626.2,1083.73 1605.03,1117.96C1507.24,1276 1368.7,1377.68 1194.74,1439.18C1127.28,1462.54 1057.81,1479.69 987.222,1490.39C966.643,1493.62 935.931,1498.04 915.407,1499.15C914.427,1437.55 922.571,1365.41 943.134,1307.1Z" fill="url(#logoLeaf1)" fill-rule="nonzero" />
      <path d="M1657.7,1012.85C1657.73,1014.98 1657.79,1017.11 1657.87,1019.25C1640.69,1055.19 1626.2,1083.73 1605.03,1117.96C1507.24,1276 1368.7,1377.68 1194.74,1439.18C1127.28,1462.54 1057.81,1479.69 987.222,1490.39C966.643,1493.62 935.931,1498.04 915.407,1499.15C914.427,1437.55 922.571,1365.41 943.134,1307.1C969.294,1311.58 1019.71,1311.15 1045.84,1310.09C1231.58,1301.04 1409.42,1232.2 1552.85,1113.84C1593.03,1080.9 1622.78,1050.71 1657.7,1012.85Z" fill="rgb(3,104,55)" fill-rule="nonzero" />
      <path d="M1657.7,1012.85C1658.53,1011.33 1660.52,1007.66 1662.44,1009.32C1661.05,1012.69 1659.52,1016 1657.87,1019.25C1657.79,1017.11 1657.73,1014.98 1657.7,1012.85Z" fill="rgb(37,117,62)" fill-rule="nonzero" />
      <path d="M686.084,1330.33C681.346,1313.73 678.99,1292.88 676.246,1275.9C658.805,1168 682.471,1036.59 726.291,936.576C772.826,829.141 851.218,738.581 950.875,677.13C976.227,661.168 1008.27,643.443 1036.28,632.527C1034.53,638.71 1022.83,640.753 1016.61,644.358L1019.48,645.573C1020.2,648.286 1019.62,648.175 1018.5,651.372C1022.3,653.486 1028.22,652.842 1028.84,653.245C1035.12,657.327 1038.81,662.158 1046.17,665.172C1063.6,672.149 1082.78,676.155 1100.14,683.134C1124.83,693.065 1150.24,704.636 1175.19,713.868C1193.09,720.492 1213.55,721.462 1231,731.04C1236.54,734.081 1243.87,736.709 1249.8,738.812C1286.68,747.939 1323.21,758.384 1358.24,773.042C1360.52,773.994 1361.28,782.008 1358.41,785.489L1359.08,786.604C1367.01,784.788 1368.39,779.903 1374.97,781.122C1305.05,824.158 1234.61,853.734 1160.89,888.534C1057.55,937.317 943.992,1011.15 876.941,1106.35C791.373,1222.87 746.2,1364.14 748.292,1508.69C748.287,1509.73 749.034,1524.75 745.593,1515.88C720.349,1462.49 697.034,1388.97 686.084,1330.33Z" fill="url(#logoLeaf2)" fill-rule="nonzero" />
      <path d="M686.084,1330.33C684.25,1266.1 686.379,1224.8 705.489,1161.92C749.918,1015.74 880.571,896.966 1011.92,826.971C953.415,893.541 909.848,963.559 887.494,1050.25C883.452,1065.93 878.105,1090.51 876.941,1106.35C791.373,1222.87 746.2,1364.14 748.292,1508.69C748.287,1509.73 749.034,1524.75 745.593,1515.88C720.349,1462.49 697.034,1388.97 686.084,1330.33Z" fill="rgb(3,104,55)" fill-rule="nonzero" />
      <path d="M745.593,1515.88C746.529,1514.18 746.765,1513.81 747.322,1511.97L748.292,1508.69C748.287,1509.73 749.034,1524.75 745.593,1515.88Z" fill="rgb(37,117,62)" fill-rule="nonzero" />
      <path d="M1036.28,632.527C1100.22,602.032 1185.16,582.295 1253.6,563.045C1410.63,518.88 1613.67,442.902 1718.44,312.502C1727.45,341.67 1734.65,381.24 1739.11,411.381C1758.62,542.256 1754.91,675.546 1728.16,805.136C1726.02,815.311 1714.34,867.625 1710.24,876.652C1702.78,881.637 1705.67,897.019 1699.86,901.338C1695.7,898.781 1694.26,892.528 1690.72,890.606C1685.73,888.416 1678.31,885.204 1672.95,884.312C1651.62,880.765 1632.2,869.82 1611.92,862.623C1608.86,860.561 1606.92,864.928 1604.16,862.933C1594.84,856.213 1586.29,856.016 1575.51,853.634C1571.25,852.692 1566.65,851.019 1562.3,849.963C1529.86,842.085 1501.89,825.369 1471.16,813.146C1463.82,810.224 1456.42,804.493 1448.72,802.475C1444.78,801.442 1442.61,800.532 1438.83,798.868C1444.56,793.24 1456.03,783.159 1457.79,775.852C1460.31,771.147 1474.85,756.042 1479.14,750.944C1511.33,712.73 1538.56,671.07 1561.29,626.672L1559.41,623.112C1507.49,686.015 1445.1,739.472 1374.97,781.122C1368.39,779.903 1367.01,784.788 1359.08,786.604L1358.41,785.489C1361.28,782.008 1360.52,773.994 1358.24,773.042C1323.21,758.384 1286.68,747.939 1249.8,738.812C1243.87,736.709 1236.54,734.081 1231,731.04C1213.55,721.462 1193.09,720.492 1175.19,713.868C1150.24,704.636 1124.83,693.065 1100.14,683.134C1082.78,676.155 1063.6,672.149 1046.17,665.172C1038.81,662.158 1035.12,657.327 1028.84,653.245C1028.22,652.842 1022.3,653.486 1018.5,651.372C1019.62,648.175 1020.2,648.286 1019.48,645.573L1016.61,644.358C1022.83,640.753 1034.53,638.71 1036.28,632.527Z" fill="rgb(146,206,54)" fill-rule="nonzero" />
      <path d="M1559.41,623.112C1561.52,619.35 1566.08,614.01 1569.02,610.743C1566.42,616.74 1564.49,620.942 1561.29,626.672L1559.41,623.112Z" fill="rgb(223,240,196)" fill-rule="nonzero" />
      <path d="M1378.1,1476.79L1379.14,1477.23C1380.79,1480.18 1380.27,1486.98 1380.41,1490.51C1383.71,1575.01 1362.93,1645.81 1300.96,1707.82C1282.38,1726.38 1261.12,1742.04 1237.87,1754.26C1170.6,1789.89 1115.51,1786.2 1042.95,1786.08L1041.2,1785.06C1040.24,1768.81 1041.04,1743.33 1041.04,1726.5L1041.09,1610.7C1109,1610.99 1150.83,1617.39 1186.53,1549.35C1204.39,1543.4 1224.08,1539.07 1242.97,1532.65C1288.97,1517.01 1334.96,1499.2 1378.1,1476.79Z" fill="rgb(106,199,76)" fill-rule="nonzero" />
      <path d="M1040.95,314.853C1078.48,315.085 1126.51,312.47 1162.22,319.437C1240.27,334.664 1294.48,375.443 1338.13,440.164C1322.15,444.305 1306.21,448.629 1290.32,453.135C1240.96,466.335 1192.34,482.164 1144.67,500.556C1117.54,484.446 1072.32,488.17 1040.97,488.259L1040.95,314.853Z" fill="rgb(106,199,76)" fill-rule="nonzero" />
    </g>
  </g>
  <text x="490" y="240" fill="#e3e0f7" font-size="100" font-family="Space Grotesk, system-ui, sans-serif" font-weight="700">SproutGit</text>
  <text x="490" y="330" fill="url(#accent)" font-size="48" font-family="Space Grotesk, system-ui, sans-serif" font-weight="700">Git built for parallel work.</text>
  <text x="490" y="400" fill="#bdcabf" font-size="28" font-family="Space Grotesk, system-ui, sans-serif">Worktree-first desktop Git client</text>
  <text x="490" y="438" fill="#bdcabf" font-size="28" font-family="Space Grotesk, system-ui, sans-serif">for humans and AI agents</text>
</svg>
